<svg width="85px" height="85px" xmlns="http://www.w3.org/2000/svg" xmlns:xlink="http://www.w3.org/1999/xlink" version="1.1" x="0px" y="0px" fill="#534c64" stroke="#534c64" viewBox="0 0 100 100" enable-background="new 0 0 100 100" id="a1496379583426"><g><g><path old_fill="#000000" d="M73.638,2.538c0.576-1.326,1.84-2.392,3.309-2.51c1.548-0.193,3.15,0.661,3.892,2.027    c0.089,0.129,0.158,0.398,0.373,0.307c1.563-0.36,3.213-0.365,4.771,0.02c1.769,0.459,3.404,1.436,4.624,2.798    c1.547,1.707,2.451,3.985,2.462,6.292c0.987,0.097,2.007,0.418,2.705,1.155c1.185,1.086,1.518,2.947,0.882,4.406    c-0.137,0.351-0.42,0.636-0.508,1.005c0.972,2.04,1.237,4.412,0.673,6.607c-0.286,1.216-0.874,2.337-1.6,3.349l0.028,0.109    c0.693,0.548,1.309,1.246,1.544,2.117c0.468,1.442,0.021,3.132-1.124,4.132c-0.468,0.447-1.078,0.684-1.663,0.931    c0.336,1.304,0.617,2.653,0.472,4.008c-0.216,2.984-1.964,5.788-4.528,7.323c0.093,0.165,0.24,0.286,0.389,0.402    c1.6,1.272,2.79,3.059,3.292,5.044c0.535,1.991,0.302,4.112-0.363,6.042c0.915,0.576,1.645,1.493,1.872,2.563    c0.335,1.397-0.175,2.962-1.269,3.893c-0.483,0.449-1.116,0.659-1.708,0.918c-0.081,1.925-0.827,3.806-2.022,5.311    c-0.088,0.13-0.276,0.278-0.152,0.452c0.602,1.302,1.064,2.711,1.014,4.161c0.119,2.37-0.787,4.743-2.355,6.509    c-0.247,0.283-0.542,0.521-0.775,0.814c0.041,0.216,0.22,0.375,0.327,0.562c0.245,0.324,0.404,0.777,0.841,0.884    c0.755,0.273,1.468,0.721,1.937,1.386c1.04,1.365,1.037,3.423-0.016,4.778c-0.383,0.51-0.919,0.866-1.442,1.214    c-0.238,0.32-0.332,0.723-0.515,1.075c-0.98,2.206-2.876,3.968-5.12,4.843c-2.342,0.948-5.027,0.82-7.346-0.131    c-0.415,0.808-0.909,1.633-1.725,2.09c-1.363,0.846-3.245,0.756-4.51-0.236c-0.709-0.506-1.123-1.302-1.433-2.093    c-1.376,0.443-2.809,0.838-4.27,0.729c-2.391-0.101-4.732-1.15-6.378-2.891c-0.344-0.34-0.62-0.739-0.94-1.1    c-0.232,0.223-0.381,0.511-0.578,0.763c-1.501,2.026-3.837,3.434-6.351,3.73c-2.084,0.285-4.244-0.16-6.066-1.205    c-0.695,0.542-1.478,1.041-2.378,1.118c-1.446,0.205-2.943-0.495-3.768-1.689c-0.805,0.6-1.619,1.202-2.536,1.622    c-2.75,1.218-6.093,1.074-8.684-0.478c-0.373-0.226-0.823-0.124-1.234-0.167c-2.011-0.082-3.948-0.89-5.521-2.126    c-0.14-0.154-0.337-0.063-0.49,0.01c-1.945,0.952-4.22,1.226-6.332,0.729c-2.267-0.498-4.319-1.896-5.636-3.802    c-0.054-0.058-0.158-0.175-0.21-0.232c-0.676-0.04-1.36,0.054-2.028-0.079c-2.072-0.353-3.934-1.748-4.824-3.655    c-0.736-1.514-0.833-3.31-0.336-4.912c0.313-0.995,0.891-1.886,1.592-2.65c0.024-0.234-0.135-0.446-0.199-0.663    c-0.707-1.751-0.732-3.694-0.412-5.53c-0.534-0.787-0.984-1.684-0.927-2.665c-0.04-1.849,1.406-3.538,3.216-3.855    c-0.001-0.804-0.106-1.637,0.203-2.403c0.157-0.539,0.574-0.936,0.814-1.431c-1.466-0.418-2.806-1.406-3.455-2.809    C0.25,59.642,0.625,57.377,1.88,55.83c-0.302-1.785-0.312-3.671,0.311-5.393c0.28-0.632,0.167-1.338,0.287-2.003    c0.239-1.565,1.337-2.9,2.71-3.638c0.323-0.101,0.215-0.49,0.258-0.747c0.042-1.126,0.392-2.206,0.731-3.269    c-1.966-1.56-3.322-3.896-3.583-6.402c-0.323-2.674,0.568-5.473,2.393-7.457c-0.219-0.354-0.485-0.678-0.684-1.045    c-0.687-1.222-0.62-2.819,0.154-3.987c0.39-0.621,0.958-1.11,1.585-1.482c-1.293-1.702-2.083-3.81-2.06-5.96    c-0.031-2.936,1.419-5.836,3.783-7.577c0.769-0.611,1.676-1.001,2.561-1.413c0.407-1.494,1.739-2.713,3.288-2.9    c1.352-0.219,2.709,0.381,3.632,1.353c0.453-0.062,0.869-0.331,1.331-0.4c1.636-0.395,3.379,0.151,4.628,1.245    c2.189-0.553,4.576-0.446,6.645,0.495c1.343,0.595,2.495,1.55,3.437,2.668C33.43,8.05,33.556,8.33,33.796,8.22    c1.512-0.41,3.117-0.402,4.653-0.13c0.255,0.065,0.441-0.182,0.646-0.29c1.565-1.094,3.464-1.627,5.362-1.673    c0.198-1.04,0.767-2.016,1.653-2.611c0.878-0.648,2.032-0.815,3.088-0.612c0.258,0.027,0.562,0.195,0.779-0.03    c1.688-1.24,3.757-1.998,5.865-1.94c3.301-0.032,6.497,1.858,8.129,4.714c0.078,0.094,0.147,0.38,0.318,0.251    c0.93-0.991,1.94-1.948,3.184-2.532C69.359,2.387,71.563,2.212,73.638,2.538z M69.561,7.314c-1.677,0.357-3.094,1.689-3.562,3.337    c-0.648,2.089,0.351,4.536,2.287,5.56c1.846,1.064,4.372,0.667,5.819-0.894c1.148-1.192,1.588-2.999,1.145-4.591    c-0.33-1.225-1.176-2.293-2.278-2.916C71.946,7.23,70.708,7.077,69.561,7.314z M84.979,9.198    c-0.723,0.285-0.712,1.464,0.023,1.724c0.604,0.29,1.278-0.377,1.155-0.991C86.136,9.374,85.488,8.961,84.979,9.198z     M51.638,10.905c-0.756,0.219-0.818,1.43-0.096,1.73c0.558,0.305,1.259-0.236,1.206-0.843    C52.793,11.224,52.189,10.701,51.638,10.905z M24.561,11.443c-0.52,0.333-0.562,1.167-0.064,1.539    c0.503,0.432,1.387,0.011,1.369-0.657C25.993,11.629,25.161,11.044,24.561,11.443z M62.673,11.455    c-0.239,0.068-0.363,0.351-0.32,0.584c0.034,0.358,0.541,0.572,0.792,0.286C63.54,12.007,63.176,11.258,62.673,11.455z M11,15.554    c-1.06,0.372-1.406,1.866-0.66,2.69c0.483,0.643,1.499,0.733,2.106,0.219c0.615-0.486,0.756-1.402,0.438-2.096    C12.578,15.667,11.719,15.302,11,15.554z M22.025,15.957c-3.39,0.518-6.462,2.758-7.988,5.83    c-0.876,1.697-1.265,3.632-1.155,5.537c0.121,2.721,1.348,5.37,3.317,7.248c1.984,1.932,4.735,3.049,7.505,3.037    c2.435,0.033,4.867-0.803,6.775-2.312c1.703-1.337,3.006-3.185,3.657-5.252c0.86-2.692,0.64-5.726-0.656-8.243    c-1.081-2.174-2.928-3.947-5.127-4.968C26.396,15.906,24.161,15.628,22.025,15.957z M41.824,16.493    c-0.463,0.091-0.477,0.864-0.023,0.986c0.275,0.101,0.585-0.114,0.62-0.397C42.501,16.748,42.169,16.384,41.824,16.493z     M63.2,19.984c-0.557,0.163-0.983,0.673-1.103,1.236c-0.225,0.919,0.46,2.004,1.442,2.028c0.945,0.089,1.737-0.854,1.624-1.766    C65.18,20.506,64.15,19.682,63.2,19.984z M66.112,25.782c-2.657,1.431-5.082,3.265-7.288,5.32    c-3.477,3.283-6.576,6.95-9.375,10.821c-0.121,0.124-0.214,0.327-0.401,0.349c-1.187,0.132-2.37,0.299-3.555,0.452    c-0.258,0.005-0.366,0.265-0.516,0.43c-2.188,2.842-4.215,5.88-5.452,9.268c0.046-0.018,0.142-0.053,0.188-0.07    c1.432-0.927,2.862-2.018,4.575-2.339c-0.196,0.47-0.462,0.911-0.622,1.397c-8.735,8.411-16.89,17.417-24.688,26.704    c-0.846,1.05-1.771,2.045-2.554,3.143c0.631-0.414,1.171-0.95,1.765-1.416c2.201-1.818,4.377-3.671,6.54-5.537    c7.446-6.471,14.727-13.147,21.535-20.289c0.492-0.203,0.958-0.479,1.464-0.648c-0.243,1.288-0.954,2.426-1.636,3.524    c-0.251,0.422-0.598,0.794-0.771,1.262c1.864-0.614,3.585-1.595,5.251-2.622c1.514-0.976,3.042-1.963,4.385-3.167    c0.209-1.206,0.3-2.43,0.492-3.637c0.002-0.222,0.195-0.333,0.349-0.454c2.821-2.054,5.503-4.303,8.036-6.705    c3.856-3.604,7.34-7.777,9.328-12.72c0.688-1.801,1.285-3.69,1.286-5.636C71.504,23.31,68.691,24.421,66.112,25.782z     M85.494,26.818c-0.302,0.136-0.323,0.535-0.193,0.799c0.267,0.32,0.902,0.162,0.87-0.294    C86.232,26.952,85.832,26.641,85.494,26.818z M46.881,28.199c-0.528,0.24-0.181,1.241,0.407,0.943    C47.863,28.904,47.475,27.917,46.881,28.199z M40.076,33.737c-0.661,0.199-1.106,0.879-1.104,1.558    c-0.036,0.824,0.612,1.686,1.478,1.688c0.966,0.096,1.757-0.899,1.627-1.822C42.038,34.202,41.013,33.406,40.076,33.737z     M13.537,40.921c-0.28,0.22-0.266,0.77,0.1,0.897c0.345,0.162,0.734-0.174,0.66-0.538C14.295,40.906,13.826,40.711,13.537,40.921z     M78.592,42.502c-0.617,0.242-1.065,0.891-0.998,1.562c-0.011,0.941,0.977,1.686,1.882,1.479c0.85-0.133,1.445-1.046,1.243-1.88    C80.567,42.715,79.469,42.152,78.592,42.502z M31.466,46.754c-0.311,0.214-0.265,0.774,0.1,0.909    c0.337,0.151,0.725-0.185,0.66-0.539C32.217,46.759,31.756,46.541,31.466,46.754z M67.704,48.078    c-0.632,0.313-0.661,1.363-0.009,1.67c0.501,0.258,1.153-0.078,1.223-0.641C69.108,48.432,68.346,47.737,67.704,48.078z     M21.899,49.303c-0.693,0.28-0.691,1.473,0.033,1.714c0.547,0.245,1.209-0.262,1.162-0.846    C23.162,49.554,22.47,49.024,21.899,49.303z M15.796,55.006c-0.319,0.052-0.463,0.443-0.326,0.717    c0.111,0.408,0.793,0.378,0.881-0.033C16.508,55.344,16.18,54.887,15.796,55.006z M75.286,58.074    c-0.742,0.174-0.866,1.313-0.228,1.693c0.514,0.348,1.302-0.077,1.287-0.699C76.465,58.481,75.87,57.892,75.286,58.074z     M83.513,62.162c-0.351,0.152-0.386,0.751-0.026,0.912c0.296,0.191,0.744-0.061,0.694-0.424    C84.258,62.276,83.839,61.998,83.513,62.162z M19.885,63.453c-0.572,0.213-0.302,1.205,0.307,0.993    C20.784,64.261,20.507,63.252,19.885,63.453z M57.619,63.479c-0.236,0.136-0.258,0.49-0.154,0.719    c0.187,0.352,0.794,0.276,0.879-0.122C58.501,63.661,57.998,63.218,57.619,63.479z M63.335,65.929    c-1.733,0.239-3.365,1.184-4.427,2.579c-0.903,1.162-1.417,2.632-1.402,4.106c-0.048,1.833,0.721,3.659,2.034,4.932    c1.231,1.209,2.937,1.925,4.662,1.931c2.125,0.058,4.246-0.975,5.519-2.676c1.12-1.455,1.61-3.382,1.309-5.194    c-0.223-1.446-0.925-2.818-1.987-3.826C67.569,66.316,65.385,65.62,63.335,65.929z M8.878,68.293    c-1.361,0.481-1.329,2.706,0.048,3.147c1.077,0.411,2.208-0.663,2.045-1.749C10.916,68.697,9.837,67.885,8.878,68.293z     M32.375,72.78c-1.369,0.281-2.513,1.393-2.836,2.754c-0.438,1.588,0.337,3.411,1.787,4.196c1.408,0.831,3.344,0.582,4.5-0.573    c1.156-1.103,1.461-2.966,0.736-4.384C35.835,73.254,34.016,72.384,32.375,72.78z M40.087,72.892    c-0.32,0.203-0.27,0.813,0.11,0.915c0.324,0.134,0.696-0.191,0.641-0.527C40.841,72.909,40.384,72.696,40.087,72.892z     M78.588,73.17c-0.506,0.18-0.907,0.63-1.018,1.156c-0.268,0.889,0.329,1.957,1.275,2.08c1.007,0.18,1.91-0.821,1.766-1.803    C80.587,73.623,79.535,72.818,78.588,73.17z M48.595,80.239c-0.74,0.134-0.928,1.243-0.325,1.658    c0.469,0.395,1.242,0.065,1.342-0.521C49.785,80.773,49.232,80.079,48.595,80.239z M8.465,80.739    c-0.656,0.297-0.664,1.4,0.003,1.69c0.544,0.265,1.233-0.182,1.212-0.787C9.77,81.004,9.054,80.453,8.465,80.739z M27.344,85.405    c-0.325,0.091-0.462,0.547-0.238,0.802c0.169,0.27,0.599,0.273,0.764-0.003C28.161,85.859,27.789,85.225,27.344,85.405z     M79.263,85.378c-0.329,0.247-0.197,0.881,0.229,0.93c0.317,0.053,0.576-0.229,0.548-0.537    C80.081,85.371,79.558,85.162,79.263,85.378z M68.363,86.067c-0.521,0.211-0.726,0.908-0.411,1.375    c0.302,0.611,1.308,0.502,1.514-0.137C69.797,86.642,69.08,85.75,68.363,86.067z M51.783,87.931    c-0.377,0.208-0.256,0.949,0.216,0.937c0.312,0.054,0.584-0.271,0.518-0.568C52.495,87.952,52.073,87.731,51.783,87.931z     M39.939,88.584c-0.449,0.106-0.816,0.436-1.014,0.846c-0.451,0.859-0.019,2.088,0.94,2.364c0.963,0.361,2.021-0.535,1.993-1.522    C41.957,89.263,40.956,88.288,39.939,88.584z"></path></g><path old_fill="#000000" d="M64.154,27.541c0.572-0.363,1.129-0.762,1.756-1.028c0.321,0.518,0.66,1.024,1.032,1.507   c-0.27,0.324-0.626,0.557-0.951,0.818c-2.267,1.792-4.449,3.691-6.545,5.682c-0.203,0.188-0.379,0.425-0.646,0.527   c-0.411-0.628-0.827-1.277-1-2.015c-0.1-0.2,0.12-0.336,0.227-0.469C59.912,30.709,61.934,28.981,64.154,27.541z"></path><path old_fill="#000000" d="M69.379,31.043c0.092-0.093,0.196-0.354,0.364-0.218c0.453,0.308,0.886,0.648,1.359,0.926   c-0.004,0.131-0.039,0.253-0.104,0.366c-1.639,2.781-3.681,5.315-5.978,7.58c-0.111,0.088-0.227,0.26-0.391,0.191   c-0.728-0.206-1.394-0.591-2.009-1.023C64.977,36.353,67.287,33.786,69.379,31.043z"></path><path old_fill="#000000" d="M58.589,36.046c0.121-0.167,0.323-0.055,0.401,0.089c0.829,1.032,1.793,1.948,2.816,2.783   c-2.254,2.376-4.673,4.602-7.159,6.736c-0.888-0.697-1.709-1.486-2.423-2.361c-0.122-0.135-0.186-0.338-0.015-0.466   C54.252,40.489,56.37,38.216,58.589,36.046z"></path><path old_fill="#000000" d="M44.336,51.105c1.737-3.352,3.79-6.54,6.04-9.567c0.296,0.499,0.623,0.979,0.938,1.466   c-0.033,0.189-0.203,0.316-0.309,0.467c-2.178,2.541-4.211,5.201-6.181,7.901C44.632,51.619,44.452,51.232,44.336,51.105z"></path><path old_fill="#000000" d="M46.199,52.969c2.874-2.134,5.736-4.295,8.447-6.637c0.52,0.324,1.026,0.672,1.571,0.957   c-0.93,0.79-1.968,1.443-2.962,2.15c-2.079,1.391-4.227,2.685-6.472,3.79C46.545,53.406,46.312,53.172,46.199,52.969z"></path><path old_fill="#000000" d="M39.69,55.934c1.401-1.494,2.812-2.986,4.344-4.351c0.204,0.202,0.565,0.384,0.599,0.679   c-0.699,1.01-1.578,1.894-2.222,2.938c1.006-0.704,1.953-1.497,2.943-2.223c0.29,0.073,0.482,0.361,0.647,0.599   c-4.357,4.58-9.182,8.697-14.227,12.5c-0.29,0.204-0.547,0.471-0.893,0.58c0.845-1.263,1.821-2.437,2.75-3.638   C35.564,60.584,37.58,58.215,39.69,55.934z"></path></g></svg>