	<svg height="51" xmlns="http://www.w3.org/2000/svg" xmlns:xlink="http://www.w3.org/1999/xlink" width="192.5500030517578" fill="#413A53" viewBox="0 0 192.5500030517578 51">
    <g transform="translate(-2.5000009536743164,-7)">
      <path d="M28.2 50 l-18.15 0 l-7.55 -7.6 l0 -19.8 l7.55 -7.6 l18.15 0 l7.5 7.6 l0 19.9 z M11.05 23.6 l0 17.8 l16.15 0 l0 -17.8 l-16.15 0 z M3.5 23.6 l0 17.8 l6.55 0 l0 -17.8 l-6.55 0 z M28.2 23.6 l0 17.8 l6.55 0 l0 -17.8 l-6.55 0 z M11.05 42.4 l0 6.6 l16.15 0 l0 -6.6 l-16.15 0 z M11.05 16 l0 6.6 l16.15 0 l0 -6.6 l-16.15 0 z M3.85 42.4 l6.2 6.2 l0 -6.2 l-6.2 0 z M3.85 22.6 l6.2 0 l0 -6.2 z M34.4 22.6 l-6.2 -6.2 l0 6.2 l6.2 0 z M34.4 42.4 l-6.2 0 l0 6.2 z M40.75 32.5 l7.5 -7.5 l11.95 0 l7.45 7.5 l0 17.5 l-0.95 0 l0 -16.5 l-6.5 0 l0 16.5 l-1 0 l0 -16.5 l-9.95 0 l0 16.5 l-1 0 l0 -16.5 l-6.5 0 l0 16.5 l-1 0 l0 -17.5 z M49.25 26 l0 6.5 l9.95 0 l0 -6.5 l-9.95 0 z M48.25 26.4 l-6.1 6.1 l6.1 0 l0 -6.1 z M60.2 32.5 l6.05 0 l-6.05 -6.05 l0 6.05 z M80.15 50 l-7.5 -7.5 l0 -10 l7.5 -7.5 l9.6 0 l7.5 7.5 l0 7.6 l-16.1 0 l0 1.4 l16.1 0 l0 1 l-16.1 0 l0 6.5 l8.6 0 l0 1 l-9.6 0 z M73.65 33.5 l0 8 l6.5 0 l0 -8 l-6.5 0 z M81.15 26 l0 6.5 l7.6 0 l0 -6.5 l-7.6 0 z M81.15 35.6 l0 3.5 l7.6 0 l0 -3.5 l-7.6 0 z M89.75 35.6 l0 3.5 l6.5 0 l0 -3.5 l-6.5 0 z M74.15 42.5 l6 6 l0 -6 l-6 0 z M74.15 32.5 l6 0 l0 -6 z M95.75 32.5 l-6 -6 l0 6 l6 0 z M81.15 33.5 l0 1.1 l7.6 0 l0 -1.1 l-7.6 0 z M89.75 33.5 l0 1.1 l6.5 0 l0 -1.1 l-6.5 0 z M109.75 28.95 l0 -13.95 l1 0 l0 13.95 l12.25 0 l0 -13.95 l1 0 l0 35 l-1 0 l0 -12.55 l-12.25 0 l0 12.55 l-1 0 l0 -12.55 l-6.5 0 l0 12.55 l-1 0 l0 -35 l1 0 l0 20.45 z M123 29.95 l-12.25 0 l0 6.5 l12.25 0 l0 -6.5 z M130.5 15 l1 0 l0 35 l-1 0 l0 -35 z M103.65 36.45 l6.1 0 l0 -6.1 z M144 50 l-7.5 -7.5 l0 -17.5 l1 0 l0 16.5 l6.5 0 l0 -16.5 l1 0 l0 16.5 l10.05 0 l0 -16.5 l1 0 l0 16.5 l6.5 0 l0 -16.5 l0.95 0 l0 17.5 l-7.45 7.5 l-12.05 0 z M145 42.5 l0 6.5 l10.05 0 l0 -6.5 l-10.05 0 z M137.9 42.5 l6.1 6.1 l0 -6.1 l-6.1 0 z M162.1 42.5 l-6.05 0 l0 6.05 z M176 32.5 l0 -17.5 l1 0 l0 10 l10.55 0 l7.5 7.5 l0 10 l-7.5 7.5 l-11.55 0 l-7.5 -7.5 l0 -27.5 l1 0 l0 17.5 l6.5 0 z M186.55 41.5 l0 -8 l-9.55 0 l0 8 l9.55 0 z M186.55 49 l0 -6.5 l-9.55 0 l0 6.5 l9.55 0 z M186.55 32.5 l0 -6.5 l-9.55 0 l0 6.5 l9.55 0 z M194.05 41.5 l0 -8 l-6.5 0 l0 8 l6.5 0 z M176 41.5 l0 -8 l-6.5 0 l0 8 l6.5 0 z M193.65 32.5 l-6.1 -6.1 l0 6.1 l6.1 0 z M193.65 42.5 l-6.1 0 l0 6.1 z M169.9 42.5 l6.1 6.1 l0 -6.1 l-6.1 0 z"></path>
    </g>
  </svg>